HIERARCHY
ROOT Hips
{
	OFFSET	0.00	0.00	0.00
	CHANNELS 6 Xposition Yposition Zposition Zrotation Xrotation Yrotation
	JOINT LeftHip
	{
		OFFSET	 3.430000	 0.000000	 0.000000
		CHANNELS 3 Zrotation Xrotation Yrotation
		JOINT LeftKnee
		{
			OFFSET	 0.000000	-18.469999	 0.000000
			CHANNELS 3 Zrotation Xrotation Yrotation
			JOINT LeftAnkle
			{
				OFFSET	 0.000000	-17.950001	 0.000000
				CHANNELS 3 Zrotation Xrotation Yrotation
				End Site 
				{
					OFFSET	 0.000000	-3.119996	 0.000000
				}
			}
		}
	}
	JOINT RightHip
	{
		OFFSET	-3.430000	 0.000000	 0.000000
		CHANNELS 3 Zrotation Xrotation Yrotation
		JOINT RightKnee
		{
			OFFSET	 0.000000	-18.809999	 0.000000
			CHANNELS 3 Zrotation Xrotation Yrotation
			JOINT RightAnkle
			{
				OFFSET	 0.000000	-17.570000	 0.000000
				CHANNELS 3 Zrotation Xrotation Yrotation
				End Site 
				{
					OFFSET	 0.000000	-3.250000	 0.000000
				}
			}
		}
	}
	JOINT Chest
	{
		OFFSET	 0.000000	 4.570000	 0.000000
		CHANNELS 3 Zrotation Xrotation Yrotation
		JOINT LeftCollar
		{
			OFFSET	 1.060000	 15.330000	 1.760000
			CHANNELS 3 Zrotation Xrotation Yrotation
			JOINT LeftShoulder
			{
				OFFSET	 5.810000	 0.000000	 0.000000
				CHANNELS 3 Zrotation Xrotation Yrotation
				JOINT LeftElbow
				{
					OFFSET	 0.000000	-12.080000	 0.000000
					CHANNELS 3 Zrotation Xrotation Yrotation
					JOINT LeftWrist
					{
						OFFSET	 0.000000	-9.820000	 0.000000
						CHANNELS 3 Zrotation Xrotation Yrotation
						End Site 
						{
							OFFSET	 0.000000	-7.369996	 0.000000
						}
					}
				}
			}
		}
		JOINT RightCollar
		{
			OFFSET	-1.060000	 15.330000	 1.760000
			CHANNELS 3 Zrotation Xrotation Yrotation
			JOINT RightShoulder
			{
				OFFSET	-6.060000	 0.000000	 0.000000
				CHANNELS 3 Zrotation Xrotation Yrotation
				JOINT RightElbow
				{
					OFFSET	 0.000000	-11.900000	 0.000000
					CHANNELS 3 Zrotation Xrotation Yrotation
					JOINT RightWrist
					{
						OFFSET	 0.000000	-9.520000	 0.000000
						CHANNELS 3 Zrotation Xrotation Yrotation
						End Site 
						{
							OFFSET	 0.000000	-7.140012	 0.000000
						}
					}
				}
			}
		}
		JOINT Neck
		{
			OFFSET	 0.000000	 17.620001	 0.000000
			CHANNELS 3 Zrotation Xrotation Yrotation
			JOINT Head
			{
				OFFSET	 0.000000	 5.190000	 0.000000
				CHANNELS 3 Zrotation Xrotation Yrotation
				End Site 
				{
					OFFSET	 0.000000	 4.140008	 0.000000
				}
			}
		}
	}
}

MOTION
Frames: 11
Frame Time: 0.033333
-40.1133 1.1338 -41.2879 14.9167 3.28508 108.175 6.71065 13.6259 -1.50126 -0.711332 14.7546 3.79812 -2.76882 -9.07842 0.847821 2.34883 6.91391 -23.425 -3.88048 5.79917 -2.48673 -1.76609 -4.96888 0.831324 11.3026 17.976 1.00811 0 0 0 0.563576 -8.00847 4.77508 -8.26505 -3.0392 -3.44836 5.8503 -9.4967 -32.1299 0 0 0 -9.57787 -10.0278 6.55375 7.75347 -5.38907 0.532052 -13.0123 -19.946 29.4437 0 0 0 -5.46004 0.561722 13.3826 
-40.1027 1.1356 -41.2853 14.8924 3.28386 108.178 6.7311 13.6166 -1.52034 -0.715142 14.7493 3.8124 -2.81107 -9.08142 0.848436 2.40071 6.92208 -23.4395 -3.90347 5.74646 -2.47766 -1.79028 -4.95968 0.831815 11.3391 17.9515 0.963825 0 0 0 0.5521 -8.02049 4.73542 -8.25886 -3.03128 -3.4274 5.86398 -9.48945 -32.1104 0 0 0 -9.6295 -9.95362 6.49924 7.73891 -5.38976 0.541996 -13.0417 -19.9302 29.3656 0 0 0 -5.45924 0.564931 13.425 
-40.0986 1.1309 -41.2835 14.887 3.27122 108.174 6.75674 13.619 -1.57582 -0.722612 14.7374 3.84425 -2.84582 -9.08746 0.872249 2.45629 6.93336 -23.458 -3.91493 5.70304 -2.46772 -1.82122 -4.95588 0.828497 11.3846 17.9385 0.902265 0 0 0 0.524326 -8.07195 4.66259 -8.24844 -3.02186 -3.3753 5.83718 -9.48698 -32.1338 0 0 0 -9.70567 -9.92037 6.41877 7.74006 -5.37266 0.547405 -13.0509 -19.9391 29.3595 0 0 0 -5.4921 0.557777 13.4896 
-40.0907 1.1275 -41.2797 14.8838 3.25366 108.128 6.81106 13.6339 -1.61492 -0.760304 14.7159 3.8842 -2.87946 -9.08737 0.911947 2.52207 6.94882 -23.4562 -3.93114 5.65528 -2.4438 -1.85832 -4.95388 0.835822 11.429 17.9276 0.845452 0 0 0 0.491978 -8.15814 4.57853 -8.26856 -3.09425 -3.43361 5.78763 -9.49897 -32.1044 0 0 0 -9.78981 -9.91632 6.33391 7.756 -5.36074 0.566176 -13.0698 -19.9457 29.3919 0 0 0 -5.49616 0.571152 13.5889 
-40.0756 1.125 -41.2697 14.868 3.23162 108.071 6.86432 13.6527 -1.64304 -0.762162 14.6805 3.91241 -2.96363 -9.06135 0.959779 2.63818 6.97354 -23.4443 -3.96459 5.56565 -2.42373 -1.91939 -4.94937 0.836921 11.5347 17.914 0.723897 0 0 0 0.445706 -8.31224 4.43013 -8.33797 -3.18698 -3.46326 5.75238 -9.5016 -32.0694 0 0 0 -9.96101 -9.88625 6.2187 7.78416 -5.32723 0.574682 -13.1112 -19.9511 29.3539 0 0 0 -5.52722 0.581745 13.7471 
-40.0606 1.1225 -41.2596 14.8564 3.20016 107.994 6.94611 13.6695 -1.70995 -0.808663 14.6371 3.98203 -3.0369 -9.04788 1.02242 2.74307 6.98656 -23.4415 -3.98196 5.48934 -2.39288 -1.98479 -4.93854 0.863104 11.6314 17.8908 0.602432 0 0 0 0.332781 -8.50447 4.27914 -8.38317 -3.28393 -3.51438 5.71532 -9.51645 -32.0271 0 0 0 -10.1003 -9.88942 6.088 7.78863 -5.30293 0.582393 -13.1372 -19.9724 29.3634 0 0 0 -5.56095 0.593841 13.9174 
-40.053 1.1175 -41.2521 14.8503 3.16342 107.894 7.03734 13.6928 -1.77939 -0.857973 14.5846 4.03833 -3.08302 -9.02662 1.1139 2.84676 6.99109 -23.4412 -3.99425 5.42492 -2.36008 -2.05125 -4.92838 0.910768 11.7135 17.851 0.463515 0 0 0 0.253144 -8.7604 4.05073 -8.51253 -3.45415 -3.58252 5.65727 -9.49894 -31.9211 0 0 0 -10.2451 -9.92324 5.93815 7.81798 -5.30609 0.619354 -13.165 -20.011 29.401 0 0 0 -5.56125 0.627914 14.0939 
-40.0455 1.12 -41.2421 14.8385 3.13093 107.769 7.11237 13.7339 -1.82942 -0.951813 14.5186 4.1362 -3.08131 -9.01863 1.17675 2.9288 6.98819 -23.4174 -3.99658 5.37531 -2.32071 -2.12104 -4.92191 0.95984 11.7861 17.8173 0.323832 0 0 0 0.163115 -9.07891 3.80149 -8.6581 -3.62784 -3.62688 5.61663 -9.51087 -31.8143 0 0 0 -10.3649 -9.99123 5.82321 7.83929 -5.31885 0.655723 -13.1854 -20.0454 29.4601 0 0 0 -5.55625 0.655394 14.2507 
-40.043 1.1175 -41.2295 14.8491 3.086 107.628 7.1892 13.7909 -1.87662 -1.03157 14.4452 4.22872 -3.08081 -8.99356 1.2606 3.02103 6.99181 -23.3729 -3.9997 5.33535 -2.29163 -2.18675 -4.91744 1.00841 11.8572 17.8 0.193251 0 0 0 0.0243053 -9.43765 3.56319 -8.795 -3.81815 -3.69972 5.53616 -9.52826 -31.7289 0 0 0 -10.4782 -10.0899 5.73478 7.87521 -5.31984 0.67099 -13.1898 -20.0831 29.5367 0 0 0 -5.5644 0.672272 14.3756 
-40.038 1.115 -41.2169 14.8563 3.03487 107.465 7.26427 13.8555 -1.86962 -1.10922 14.3639 4.31039 -3.08024 -8.97593 1.32756 3.10646 6.9867 -23.3049 -3.99952 5.30651 -2.25627 -2.24976 -4.90855 1.06742 11.9081 17.777 0.106169 0 0 0 -0.126316 -9.8008 3.36466 -8.93818 -4.02545 -3.8445 5.47415 -9.52157 -31.5515 0 0 0 -10.5489 -10.1801 5.661 7.90649 -5.3415 0.699136 -13.2088 -20.1094 29.5714 0 0 0 -5.5337 0.68637 14.4532 
-40.0355 1.115 -41.2069 14.8561 2.98801 107.334 7.30844 13.9117 -1.88079 -1.14879 14.2715 4.38632 -3.07804 -8.95202 1.38629 3.1732 6.96438 -23.2558 -3.99403 5.29549 -2.23494 -2.30199 -4.90727 1.11991 11.9465 17.7439 0.0146993 0 0 0 -0.276533 -10.1512 3.178 -9.04918 -4.1621 -3.91494 5.43706 -9.53404 -31.4216 0 0 0 -10.5759 -10.2468 5.62429 7.92843 -5.36499 0.707299 -13.2176 -20.1355 29.5751 0 0 0 -5.51278 0.66208 14.4802 
